<?xml version="1.0" standalone="no"?>
<!DOCTYPE svg PUBLIC "-//W3C//DTD SVG 20010904//EN"
 "http://www.w3.org/TR/2001/REC-SVG-20010904/DTD/svg10.dtd">
<svg version="1.0" xmlns="http://www.w3.org/2000/svg"
 width="512.000000pt" height="512.000000pt" viewBox="0 0 512.000000 512.000000"
 preserveAspectRatio="xMidYMid meet">
<metadata>
Created by potrace 1.16, written by Peter Selinger 2001-2019
</metadata>
<g transform="translate(0.000000,512.000000) scale(0.100000,-0.100000)"
fill="#000000" stroke="none">
<path d="M375 4418 c-37 -20 -55 -51 -55 -98 0 -48 18 -79 57 -99 13 -7 87
-11 193 -11 l172 0 -6 -32 c-3 -18 -49 -339 -102 -712 l-97 -679 -86 -86
c-389 -387 -459 -991 -169 -1459 64 -103 196 -246 298 -321 412 -306 989 -306
1400 0 81 61 212 193 256 258 l27 41 838 0 838 0 6 -47 c25 -192 135 -349 300
-428 295 -141 634 0 743 309 49 140 29 327 -49 451 -43 69 -114 140 -181 181
l-56 34 -4 393 c-4 391 -4 392 -29 458 -36 94 -69 146 -130 208 -62 61 -115
94 -208 129 -61 23 -82 26 -278 30 l-212 4 -3 372 -3 371 -32 67 c-68 144
-201 237 -351 246 -73 4 -80 3 -110 -22 -83 -71 -26 -196 90 -196 55 0 130
-50 161 -108 l27 -50 0 -341 0 -341 -540 0 c-297 0 -540 1 -540 3 0 15 -245
1077 -260 1127 -36 123 -140 249 -249 304 -111 57 -103 56 -901 56 -515 -1
-741 -4 -755 -12z m1541 -235 c130 -70 132 -74 274 -698 66 -291 120 -532 120
-537 0 -4 -123 -8 -274 -8 -255 0 -277 1 -320 21 -109 48 -233 71 -401 76
-177 5 -299 -12 -433 -63 -37 -14 -74 -28 -83 -30 -13 -5 -1 95 75 631 l91
636 455 -3 c447 -3 456 -3 496 -25z m-406 -1388 c321 -87 580 -329 678 -635
35 -110 45 -180 45 -305 -4 -460 -338 -850 -799 -930 -480 -84 -955 229 -1080
710 -55 211 -29 454 69 650 126 253 368 448 633 509 38 8 78 18 89 20 47 11
302 -3 365 -19z m2770 -106 c80 -37 125 -81 162 -157 l33 -67 3 -352 3 -353
-43 0 c-152 -1 -335 -114 -418 -259 l-35 -60 -802 -1 c-442 0 -803 2 -803 3 0
2 9 30 20 61 47 137 67 332 51 482 -28 252 -123 468 -290 662 l-62 73 1063 -3
1063 -3 55 -26z m332 -1177 c240 -118 240 -451 0 -569 -81 -40 -183 -40 -264
0 -254 125 -236 481 29 582 58 22 177 15 235 -13z"/>
<path d="M3764 2476 c-28 -28 -34 -42 -34 -76 0 -34 6 -48 34 -76 l34 -34 142
0 c84 0 150 4 163 11 39 20 57 51 57 99 0 48 -18 79 -57 99 -13 7 -79 11 -163
11 l-142 0 -34 -34z"/>
<path d="M3767 2056 c-53 -49 -47 -134 13 -174 33 -22 42 -23 178 -20 l144 3
29 33 c41 46 41 111 0 153 l-29 29 -155 0 c-149 0 -155 -1 -180 -24z"/>
</g>
</svg>
