<?xml version="1.0" standalone="no"?>
<!DOCTYPE svg PUBLIC "-//W3C//DTD SVG 20010904//EN"
 "http://www.w3.org/TR/2001/REC-SVG-20010904/DTD/svg10.dtd">
<svg version="1.0" xmlns="http://www.w3.org/2000/svg"
 width="512.000000pt" height="512.000000pt" viewBox="0 0 512.000000 512.000000"
 preserveAspectRatio="xMidYMid meet">
<metadata>
Created by potrace 1.16, written by Peter Selinger 2001-2019
</metadata>
<g transform="translate(0.000000,512.000000) scale(0.100000,-0.100000)"
fill="#000000" stroke="none">
<path d="M692 4509 c-26 -13 -55 -39 -70 -62 l-27 -41 -5 -737 -5 -738 -95
-57 c-105 -63 -213 -142 -248 -183 -103 -118 -41 -304 111 -331 62 -12 122 7
194 61 135 103 251 167 393 217 164 57 227 67 440 67 178 0 204 -3 300 -27
263 -67 459 -176 640 -358 235 -235 365 -524 390 -864 9 -136 22 -176 73 -226
73 -71 213 -65 283 12 42 45 56 112 49 225 l-7 103 272 0 272 0 -71 -76 c-51
-55 -84 -102 -117 -168 -57 -115 -73 -176 -81 -301 -27 -449 342 -818 792
-792 55 3 127 13 160 22 202 55 389 210 479 398 47 98 66 174 73 292 13 221
-64 421 -222 577 -32 32 -57 59 -54 60 2 2 21 12 42 23 44 22 112 86 132 124
7 15 81 212 165 438 104 284 152 426 152 456 1 58 -20 98 -62 119 -32 16 -81
18 -567 18 l-533 0 0 388 c1 418 9 550 39 636 30 86 87 146 139 146 21 0 22 3
22 106 l0 107 -80 -7 c-43 -3 -110 -16 -147 -27 -183 -57 -277 -147 -340 -326
l-28 -78 -3 -472 -3 -473 -289 0 -289 0 -10 38 c-6 20 -96 381 -201 802 -114
459 -201 786 -216 818 -14 29 -42 65 -61 80 l-36 27 -851 3 -851 2 -43 -21z
m1517 -416 c5 -21 51 -200 101 -398 51 -198 102 -399 115 -447 l24 -88 -730 0
-729 0 0 485 0 485 605 0 604 0 10 -37z m2109 -2723 c125 -58 225 -196 241
-331 33 -276 -202 -511 -478 -478 -182 21 -345 183 -369 365 -43 336 299 588
606 444z"/>
<path d="M1153 2556 c-65 -13 -93 -29 -93 -53 0 -7 -19 -22 -42 -32 -37 -16
-45 -17 -59 -5 -26 23 -57 16 -141 -28 -96 -52 -118 -71 -118 -106 0 -35 -52
-72 -102 -72 -31 0 -44 -9 -102 -71 -74 -77 -92 -112 -78 -144 14 -29 -26 -88
-64 -95 -24 -4 -35 -17 -66 -80 -20 -41 -43 -97 -50 -124 -12 -44 -11 -49 7
-65 18 -14 19 -22 11 -58 -5 -24 -14 -43 -21 -43 -6 0 -20 -9 -30 -20 -14 -15
-19 -43 -23 -133 l-5 -114 31 -28 c37 -33 48 -96 20 -114 -24 -15 -23 -53 3
-137 32 -105 47 -132 77 -139 29 -6 78 -80 61 -91 -32 -19 14 -115 98 -203 33
-34 47 -43 67 -39 17 4 35 -3 59 -23 27 -23 33 -33 29 -57 -3 -25 3 -34 40
-64 62 -50 145 -98 169 -98 11 0 29 4 39 10 13 7 30 5 59 -8 23 -11 38 -22 35
-25 -4 -4 0 -17 9 -30 12 -18 37 -30 97 -46 103 -28 153 -30 178 -8 11 10 35
17 59 17 32 0 44 -5 57 -25 19 -29 50 -32 173 -14 83 12 100 21 113 55 10 26
84 44 103 25 20 -20 62 -12 148 30 100 48 119 64 119 98 0 36 53 71 97 64 29
-5 40 1 104 63 82 79 103 113 91 145 -11 28 24 88 51 89 36 0 58 22 91 88 53
105 62 146 42 177 -14 21 -15 32 -6 65 6 22 17 40 24 40 31 0 46 37 56 141 16
159 2 247 -41 261 -6 2 -14 23 -19 47 -6 36 -5 46 11 62 24 24 24 22 -6 117
-29 92 -61 144 -93 152 -36 8 -63 58 -55 102 5 33 1 44 -35 91 -76 101 -106
127 -145 127 -48 0 -89 35 -92 79 -3 36 -11 43 -119 109 -71 43 -103 50 -134
31 -25 -15 -96 12 -100 39 -4 29 -19 38 -87 55 -130 33 -205 31 -205 -6 0 -20
-92 -8 -108 14 -16 23 -90 24 -189 5z m452 -469 c118 -39 199 -90 300 -192 72
-72 99 -107 133 -175 65 -130 86 -228 79 -375 -5 -126 -23 -199 -74 -300 -141
-279 -453 -446 -755 -405 -341 47 -601 307 -648 648 -42 308 136 628 425 763
115 54 192 69 335 65 102 -2 140 -8 205 -29z"/>
<path d="M1276 1725 c-147 -41 -255 -184 -256 -339 0 -84 14 -136 56 -201 73
-116 183 -171 326 -163 258 14 414 288 298 522 -75 150 -256 227 -424 181z"/>
</g>
</svg>
